<?xml version="1.0" encoding="utf-8"?>
<!-- Generator: Adobe Illustrator 16.0.0, SVG Export Plug-In . SVG Version: 6.00 Build 0)  -->
<!DOCTYPE svg PUBLIC "-//W3C//DTD SVG 1.1//EN" "http://www.w3.org/Graphics/SVG/1.1/DTD/svg11.dtd">
<svg version="1.1" id="Capa_1" xmlns="http://www.w3.org/2000/svg" xmlns:xlink="http://www.w3.org/1999/xlink" x="0px" y="0px"
	 width="600px" height="600px" viewBox="0 0 600 600" enable-background="new 0 0 600 600" xml:space="preserve">
<g>
	<path fill="#7E8640" d="M299.246,0C134.244,0,0,134.244,0,299.25C0,464.257,134.244,598.5,299.246,598.5
		c165.01,0,299.254-134.243,299.254-299.25C598.5,134.244,464.256,0,299.246,0z M299.246,559.253
		c-143.357,0-259.998-116.636-259.998-260.003c0-143.366,116.64-260.003,259.998-260.003c143.375,0,260.007,116.637,260.007,260.003
		C559.253,442.617,442.621,559.253,299.246,559.253z"/>
	<path fill="#7E8640" d="M361.432,164.365c-7.665-7.667-20.094-7.667-27.75,0L212.673,285.371c-3.682,3.679-5.75,8.672-5.75,13.875
		c0,5.202,2.069,10.193,5.75,13.873l121.009,121.011c3.834,3.834,8.854,5.751,13.875,5.751s10.053-1.917,13.875-5.751
		c7.666-7.659,7.666-20.089,0-27.749L254.304,299.244l107.127-107.132C369.098,184.453,369.098,172.026,361.432,164.365z"/>
</g>
</svg>
