<?xml version="1.0" encoding="utf-8"?>
<!-- Generator: Adobe Illustrator 16.0.0, SVG Export Plug-In . SVG Version: 6.00 Build 0)  -->
<!DOCTYPE svg PUBLIC "-//W3C//DTD SVG 1.1//EN" "http://www.w3.org/Graphics/SVG/1.1/DTD/svg11.dtd">
<svg version="1.1" id="Calque_1" xmlns="http://www.w3.org/2000/svg" xmlns:xlink="http://www.w3.org/1999/xlink" x="0px" y="0px"
	 width="297.692px" height="219.777px" viewBox="58.308 67.223 297.692 219.777"
	 enable-background="new 58.308 67.223 297.692 219.777" xml:space="preserve">
<g transform="translate(0.000000,355.000000) scale(0.100000,-0.100000)">
	<path d="M2201.001,2865c-51.001-16.002-95-55-123.999-110c-29.004-56.002-36.001-209-12.002-291.002
		c47.002-163.998,202.002-376.996,412.998-567.996l54.004-48.004l-7.002-61.996c-8.999-86.998-11.001-91.002-52.998-110.006
		c-35-15.996-41.001-15-107.002,4.004c-282.002,80.996-485,215-485,321.002c0,97.998,100,103.998,292.002,16.996
		c72.998-32.998,93.999-31.996,103.999,7.002c10,39,1.001,49-83.003,92.998C1935,2252.002,1733.999,2196.002,1735,1990
		c1.001-152.998,127.998-285,372.998-390l103.003-44.004l-33.003-12.998c-93.999-40-276.997-95-387.998-117.002
		C1511.001,1370,1092.998,1342.002,812.998,1360c-95,5.996-181.997,7.998-192.998,5c-25-7.998-42.998-40-35-64.004
		c31.001-96.992,762.002-120,1172.998-35.996c258.003,52.002,506.001,125.996,660,195.996
		c36.001,16.006,66.001,28.008,67.002,27.002c1.001-2.002-3.999-60.996-11.001-132.998c-16.997-164.004-18.999-405-5-467.998
		C2500,754.004,2582.002,680,2700,680c92.998,0,156.001,40,196.001,125c60,125.996-5,287.002-92.002,230
		c-25-15.996-26.001-19.004-18.999-85.996c7.002-67.002,6.001-69.004-22.998-99.004c-37.002-37.002-71.001-37.998-111.001-5
		c-43.999,37.998-55,100.996-48.003,282.002c5,128.994,60,578.994,73.003,592.002c16.001,15.996,32.998-36.006,42.998-124.004
		c20-190,90-399.004,176.001-530c62.002-92.002,146.001-169.004,232.998-212.002c72.998-37.002,80-37.998,182.002-37.998
		c97.002,0,109.004,2.002,152.002,27.998c67.998,39.004,97.998,95,97.998,177.998c0,57.002-5,73.008-35.996,125
		c-49.004,82.002-120,152.002-416.006,411.006c-295,256.998-275,225-237.998,380.996c22.998,95,25,143.004,7.998,160
		c-17.998,18.004-52.998,15-71.997-6.996c-18.003-20-51.001-106.002-61.001-163.004c-7.998-40-13.999-45-32.998-25.996
		c-8.003,7.998-12.002,59-12.002,164C2700,2239,2683.999,2351,2638.999,2485C2537.998,2787.002,2382.998,2922.002,2201.001,2865z
		 M2352.998,2677.002c48.003-50,115-178.004,146.001-281.002c25-82.002,51.001-232,51.001-296v-43.998L2498.999,2105
		c-78.999,77.998-212.998,247.998-247.998,317.002c-58.999,117.998-65,225-16.001,273.998
		C2271.001,2732.002,2303.999,2727.002,2352.998,2677.002z M3082.002,1367.002C3255,1214.004,3342.998,1122.998,3379.003,1060
		c20-35.996,20-39.004,2.998-60c-27.002-32.998-92.998-37.002-167.002-9.004c-45.996,17.002-75.996,38.008-130.996,93.008
		c-61.006,60.996-80.005,88.994-132.002,195.996c-56.001,114.004-92.002,219.004-92.002,265.996c0,15,3.999,14.004,27.998-7.998
		C2902.998,1524.004,2990,1447.002,3082.002,1367.002z"/>
	<path display="none" d="M4255.996,2327.998L4089.003,2125l2.998-50l2.998-50l147.002-2.998l147.002-3.002l2.998-61.998L4395,1895
		h55h55l2.998,62.002l2.998,61.998l42.002,3.002L4595,2025l2.998,47.998l2.998,47.002h-45H4510v205v205h-44.004h-42.998
		L4255.996,2327.998z"/>
	<path display="none" d="M5310,2507.998C5305,2495,5272.001,2411,5235.996,2320l-63.994-165l-10,40
		c-6.006,22.002-24.004,93.998-41.006,160c-45,173.998-38.994,165-110.996,165c-42.002,0-60-4-60-12.002
		c0.996-6.998,40-151.998,89.004-321.996c88.994-315,102.998-348.004,135-316.002c7.998,7.998,46.992,97.998,85.996,200
		s75,188.998,79.004,192.998c3.994,4.004,42.998-83.998,86.992-195c68.008-171.996,83.008-202.998,102.002-205.996
		c15-2.002,25,4,32.002,20c17.002,40,170,596.996,170,617.998c0,18.998-5,21-62.002,17.998l-62.002-2.998l-46.992-185
		c-26.006-102.002-48.008-180-48.008-172.998c-0.996,5.996-32.998,92.998-71.992,191.996c-65,166.002-73.008,181.002-95,181.002
		C5327.998,2530,5315.996,2522.002,5310,2507.998z"/>
	<path display="none" d="M6137.001,2523.998c-4.004-3.998-7.002-146-7.002-313.998c0-253.998,2.002-310,14.004-318.998
		c7.998-7.002,35.996-11.002,62.998-9L6255,1885v320v320l-55,2.998C6169.003,2530,6140.996,2527.998,6137.001,2523.998z"/>
	<path display="none" d="M6685,2517.002c-2.998-7.002-4.004-154.004-2.998-327.002l2.998-315l57.002-2.998L6800,1869l2.002,201
		l2.998,202.002L6987.998,2070c101.006-111,190-203.998,197.998-207.002c8.008-2.998,21.005,0,29.003,7.002
		c12.998,11.002,15,57.998,12.998,329l-2.998,316l-62.001,2.998L7100,2521l-2.002-191L7095,2137.998l-184.004,196
		C6735.996,2521,6697.998,2552.002,6685,2517.002z"/>
	<path display="none" d="M7845.995,2505c-72.998-30-137.998-92.002-173.994-165c-22.998-47.002-27.002-67.002-27.002-145
		c0-103.998,19.004-156,80-222.998c45-51,137.998-98.002,207.998-107.002c62.002-7.998,162.998,9,230,37.002l47.998,20.996
		L8207.997,2059l-2.998,136h-105h-105v-55v-55l42.998-2.998c40-3.002,42.002-4.004,42.002-37.002c0-36-4.004-37.998-70.996-50
		c-119.004-21-240,97.002-227.002,219c7.998,66,37.998,117,92.002,153.998c62.998,42.002,130,44.004,200,7.002
		c58.994-31.002,65.996-31.002,98.994,2.998c37.998,40,35,67.002-12.002,98.002C8072.001,2535,7945.995,2547.002,7845.995,2505z"/>
	<path display="none" d="M8739.999,2515c-74.004-34-110-87.002-110-165c0-89,47.002-146,170.996-203.998
		c41.006-19,83.008-44,93.008-55C8935.995,2045,8900.995,1980,8834.999,1980c-17.998,0-60,14-94.004,32.002L8677.997,2044
		l-18.994-24c-22.002-28.998-33.008-63.998-26.006-83.998c2.998-8.004,32.002-27.002,64.004-42.002c48.994-25,70-29,137.998-29
		c69.004,0,85.996,4,127.002,27.002c63.994,37.998,92.998,87.998,92.998,160c0,86.998-35,130.996-152.998,189
		c-135,66.996-171.006,111-124.004,151c35,30.996,60,30.996,130-2.002l67.002-31.002l27.998,31.002
		c42.002,47.002,34.004,77.998-27.998,108.998C8910.995,2530,8792.997,2538.998,8739.999,2515z"/>
	<path display="none" d="M4982.998,1450c-95-20-168.994-79.004-212.002-170c-21.992-45.996-25.996-69.004-25.996-140
		c0-72.998,4.004-92.998,27.998-142.002c112.002-227.002,445-220,551.006,11.006c30,66.992,28.994,197.998-2.002,266.992
		C5265,1402.998,5119.003,1477.998,4982.998,1450z M5105,1379.004c142.998-36.006,212.002-214.004,139.004-356.006
		C5202.001,940,5142.998,905,5045,905c-62.002,0-77.998,4.004-120.996,30c-131.006,82.002-146.006,290-28.008,394.004
		C4959.003,1385,5022.998,1400,5105,1379.004z"/>
	<path display="none" d="M9992.997,1450c-92.998-19.004-175-85.996-213.994-175c-17.002-37.002-23.008-70-23.008-130
		c-0.996-72.002,3.008-87.998,32.002-147.998c112.002-227.998,442.002-221.006,545,12.002c25,56.992,32.998,155.996,17.998,217.998
		C10312.001,1384.004,10152.001,1482.998,9992.997,1450z M10125.995,1375c120-35,188.008-175.996,150-309.004
		c-48.994-165.996-250-220.996-375-102.998c-47.998,46.006-70.996,101.006-70.996,172.998c0,123.008,50.996,202.002,157.998,240
		C10037.001,1392.998,10065.995,1392.998,10125.995,1375z"/>
	<path display="none" d="M4130,1415c0-34.004,0.996-35,40-35h40v-235V910h-40c-39.004,0-40-0.996-40-35v-35h115h115v35
		c0,34.004-0.996,35-40,35h-40v100v100h95h95v30v30h-95h-95v105v105h105h105v-45c0-45,0-45,35-45h35v80v80h-215h-215V1415z"/>
	<path display="none" d="M5550,1415c0-32.998,2.002-35,34.004-35h33.994l4.004-202.002c2.998-182.998,5.996-207.002,25-242.998
		c37.998-72.002,95-104.004,187.998-105c102.002,0,172.002,37.998,205.996,115c16.006,34.004,19.004,67.998,19.004,237.998V1380h40
		c39.004,0,40,0.996,40,35v35h-115h-115v-35c0-34.004,0.996-35,40-35h40v-185c0-209.004-7.002-240.996-62.002-275
		c-25.996-17.002-45-20-95.996-17.998c-54.004,3.994-67.002,7.998-92.998,33.994c-41.006,42.002-48.008,82.002-49.004,277.002V1380
		h40c39.004,0,40,0.996,40,35v35h-110h-110V1415z"/>
	<path display="none" d="M6330,1415c0-34.004,0.996-35,40-35h40v-235V910h-40c-39.004,0-40-0.996-40-35v-35h110h110v35
		c0,32.998-2.002,35-35,35h-35v195c0,107.002,2.002,195,4.004,195c1.992,0,80.996-102.998,175.996-230
		c140.996-187.998,177.002-230,195.996-230H6880v270v270h40c39.004,0,40,0.996,40,35v35h-115h-115v-35c0-34.004,0.996-35,40-35h40
		v-190c0-104.004-2.002-190-4.004-190c-2.998,0-80,100.996-170.996,225l-167.002,225h-68.994H6330V1415z"/>
	<path display="none" d="M7150,1415.996c0-35,0.996-35.996,40-35.996h40v-235V910h-40c-39.004,0-40-0.996-40-35.996v-36.006
		l167.998,4.004c159.004,2.998,170,5,230,32.002c121.006,55.996,180,157.998,170,297.998
		c-7.002,87.998-38.994,150.996-102.002,198.994c-73.994,56.006-128.994,70-307.998,76.006L7150,1452.998V1415.996z
		 M7510.995,1352.998c93.008-42.002,148.008-137.998,134.004-237.002c-17.002-135-107.998-205-267.002-205.996h-77.998v235.996
		v237.002l82.998-5C7434.003,1374.004,7484.003,1365,7510.995,1352.998z"/>
	<path display="none" d="M8059.999,1415c0-30.996,2.998-35,25-35c14.004,0,25-4.004,25-9.004c0-6.992-122.002-335-165-442.998
		c-5-12.002-17.998-17.998-35.996-17.998c-26.006,0-29.004-2.998-29.004-35v-35h100h100v35c0,32.002-2.002,35-30.996,35
		c-34.004,0-34.004,0,0.996,90l17.998,45l115,2.998l115,2.998l25-67.998l25-67.998l-28.994-2.998
		c-26.006-2.998-29.004-7.002-29.004-37.998V840h100h100v34.004c0,30.996-2.998,35-30.996,37.998
		c-30,2.998-31.006,5-119.004,235.996L8252.997,1380h27.998c26.006,0,29.004,2.998,29.004,35v35h-125h-125V1415z M8267.001,1114.004
		c-2.002-3.008-42.998-4.004-90-2.002l-85,2.998l45.996,122.998l46.006,124.004L8227.997,1240
		C8252.001,1174.004,8269.999,1117.002,8267.001,1114.004z"/>
	<path display="none" d="M8599.999,1370v-80h35c35,0,35,0,35,45v45h75h75v-235V910h-45c-45,0-45,0-45-35v-35h120h120v35
		c0,34.004-0.996,35-40,35h-40v235v235h70h70v-45c0-45,0-45,35-45h35v80v80h-250h-250V1370z"/>
	<path display="none" d="M9299.999,1415c0-35,0-35,45-35h45v-235V910h-45c-45,0-45,0-45-35v-35h120h120v35c0,34.004-0.996,35-40,35
		h-40v235v235h40c39.004,0,40,0.996,40,35v35h-120h-120V1415z"/>
	<path display="none" d="M10569.999,1415c0-34.004,0.996-35,40-35h40v-235V910h-40c-39.004,0-40-0.996-40-35v-35h115h115v35
		c0,34.004-0.996,35-40,35h-40v202.002v200.996l175-233.994c135.996-180,182.002-235,200-237.002l25-2.998v270V1380h40
		c39.004,0,40,0.996,40,35v35h-110h-110v-35c0-32.998,2.002-35,35-35h35v-192.002c0-112.002-4.004-187.998-9.004-182.002
		c-5,5-80.996,107.002-170,227.002L10709.003,1450h-70h-69.004V1415z"/>
</g>
</svg>
